HIERARCHY
ROOT Hips
{
	OFFSET -3.958830 18.904000 13.208200
	CHANNELS 6 Xposition Yposition Zposition Zrotation Yrotation Xrotation 
	JOINT LHipJoint
	{
		OFFSET 0.000000 0.000000 0.000000
		CHANNELS 3 Zrotation Yrotation Xrotation
		JOINT LeftUpLeg
		{
			OFFSET 1.800000 -1.400000 0.085000
			CHANNELS 3 Zrotation Yrotation Xrotation
			JOINT LeftLeg
			{
				OFFSET 2.215000 -6.000000 0.000000
				CHANNELS 3 Zrotation Yrotation Xrotation
				JOINT LeftFoot
				{
					OFFSET 2.500000 -6.900000 0.000000
					CHANNELS 3 Zrotation Yrotation Xrotation
					JOINT LeftToeBase
					{
						OFFSET 0.200000 -0.500000 1.950000
						CHANNELS 3 Zrotation Yrotation Xrotation
						End Site
						{
							OFFSET 0.000000 0.000000 0.000000
						}
					}
				}
			}
		}
	}
	JOINT RHipJoint
	{
		OFFSET 0.000000 0.000000 0.000000
		CHANNELS 3 Zrotation Yrotation Xrotation
		JOINT RightUpLeg
		{
			OFFSET -1.800000 -1.400000 0.085000
			CHANNELS 3 Zrotation Yrotation Xrotation
			JOINT RightLeg
			{
				OFFSET -2.215000 -6.000000 0.000000
				CHANNELS 3 Zrotation Yrotation Xrotation
				JOINT RightFoot
				{
					OFFSET -2.500000 -6.900000 0.000000
					CHANNELS 3 Zrotation Yrotation Xrotation
					JOINT RightToeBase
					{
						OFFSET -0.200000 -0.500000 1.950000
						CHANNELS 3 Zrotation Yrotation Xrotation
						End Site
						{
							OFFSET 0.000000 0.000000 0.000000
						}
					}
				}
			}
		}
	}
	JOINT LowerBack
	{
		OFFSET 0.000000 0.000000 0.000000
		CHANNELS 3 Zrotation Yrotation Xrotation
		JOINT Spine
		{
			OFFSET -0.087000 1.940000 -0.288900
			CHANNELS 3 Zrotation Yrotation Xrotation
			JOINT Spine1
			{
				OFFSET 0.000000 1.950000 0.060000
				CHANNELS 3 Zrotation Yrotation Xrotation
				JOINT Neck
				{
					OFFSET 0.000000 0.000000 0.000000
					CHANNELS 3 Zrotation Yrotation Xrotation
					JOINT Neck1
					{
						OFFSET 0.000000 1.600000 0.340000
						CHANNELS 3 Zrotation Yrotation Xrotation
						JOINT Head
						{
							OFFSET 0.000000 1.667000 -0.240000
							CHANNELS 3 Zrotation Yrotation Xrotation
							End Site
							{
								OFFSET 0.000000 0.000000 0.000000
							}
						}
					}
				}
				JOINT LeftShoulder
				{
					OFFSET 0.000000 0.000000 0.000000
					CHANNELS 3 Zrotation Yrotation Xrotation
					JOINT LeftArm
					{
						OFFSET 2.700000 1.550000 -0.730000
						CHANNELS 3 Zrotation Yrotation Xrotation
						JOINT LeftForeArm
						{
							OFFSET 5.450000 0.000000 0.000000
							CHANNELS 3 Zrotation Yrotation Xrotation
							JOINT LeftHand
							{
								OFFSET 3.450000 0.000000 0.000000
								CHANNELS 3 Zrotation Yrotation Xrotation
								JOINT LeftHandIndex1
								{
									OFFSET 0.750000 0.000000 0.000000
									CHANNELS 3 Zrotation Yrotation Xrotation
									End Site
									{
										OFFSET 0.000000 0.000000 0.000000
									}
								}
							}
						}
					}
				}
				JOINT RightShoulder
				{
					OFFSET 0.000000 0.000000 0.000000
					CHANNELS 3 Zrotation Yrotation Xrotation
					JOINT RightArm
					{
						OFFSET -2.700000 1.550000 -0.730000
						CHANNELS 3 Zrotation Yrotation Xrotation
						JOINT RightForeArm
						{
							OFFSET -5.450000 0.000000 0.000000
							CHANNELS 3 Zrotation Yrotation Xrotation
							JOINT RightHand
							{
								OFFSET -3.450000 0.000000 0.000000
								CHANNELS 3 Zrotation Yrotation Xrotation
								JOINT RightHandIndex1
								{
									OFFSET -0.750000 0.000000 0.000000
									CHANNELS 3 Zrotation Yrotation Xrotation
									End Site
									{
										OFFSET 0.000000 0.000000 0.000000
									}
								}
							}
						}
					}
				}
			}
		}
	}
}
MOTION
Frames: 7
Frame Time: 0.016667
4.365670 18.572110 -0.738720 15.107407 -12.207708 -2.326865 -14.663234 12.413822 2.692481 12.650408 -3.976862 -20.939571 15.537533 5.404638 68.772525 1.327694 11.274971 0.540651 0.147260 0.065590 0.255580 18.674654 -12.128205 3.065534 -20.673032 0.794337 -29.094140 6.338291 -7.420492 25.104949 -0.200174 -4.016253 2.615368 -0.013740 -0.213470 0.081890 -4.735173 2.812900 -7.710251 10.010610 -3.880123 17.511788 -12.657582 -1.343090 6.785205 4.687560 11.249295 -13.594726 25.357345 -19.880907 27.054951 6.659110 -12.837570 -15.214050 -8.999496 -10.353609 9.895779 -54.722506 10.548250 -16.005728 -44.718531 -38.100714 9.750092 -3.298338 3.244963 0.417490 -0.207170 0.260790 -0.097530 -1.919786 5.806467 6.424824 58.788721 17.426658 -2.944284 22.959688 34.155405 3.869911 2.418332 -1.378210 -0.014470 0.042360 -0.008510 -0.127270 
4.293130 18.371540 -0.628790 13.825003 -13.275979 -2.330892 -14.582089 12.921393 1.975283 15.342361 -2.026633 -13.394725 14.045094 5.381009 58.784970 0.961885 9.718599 1.036079 0.141660 0.069450 0.216330 18.697780 -12.297628 3.282190 -18.837497 1.514734 -30.785537 6.247452 -8.179023 29.714750 -0.246968 -4.533346 2.443612 0.004490 -0.158150 0.093530 -4.824806 2.654940 -7.357011 11.852871 -5.986160 14.275073 -12.751381 -3.857531 8.140825 4.986735 11.484465 -13.446720 25.559926 -19.479686 23.397934 6.811400 -13.134230 -14.896780 -9.402637 -10.977794 10.508273 -56.706031 10.994910 -16.116159 -39.175100 -34.741278 6.802937 -3.343182 3.230155 0.356930 -0.161450 0.213600 -0.072720 -2.242997 5.433078 6.147395 59.244942 19.842106 -1.625476 22.720791 37.562493 4.294978 2.387954 -1.452801 -0.014100 0.042100 -0.005070 -0.100180 
4.244740 18.202600 -0.541810 13.061433 -13.602448 -2.642020 -14.566852 13.244249 1.554343 17.531973 -1.093417 -6.510560 12.115062 5.694436 50.324899 0.673760 8.534921 1.451372 0.171400 0.110030 0.205320 18.703846 -12.256017 3.406595 -17.607598 1.915741 -32.640183 5.157431 -8.975094 35.262169 -0.353371 -5.229238 2.199579 0.051430 -0.118330 0.102760 -4.826392 2.244349 -7.138815 13.372386 -8.259035 11.711514 -12.913468 -6.484423 9.755336 5.319559 11.510468 -13.251265 24.872471 -18.815421 21.391370 7.024740 -12.976640 -15.829860 -9.607755 -12.033184 10.951958 -57.003914 10.386023 -15.203415 -36.556856 -32.516528 5.419746 -3.378205 3.233915 0.326610 -0.134540 0.186630 -0.047450 -2.702112 5.465620 5.942378 59.360620 21.882246 -0.501579 23.985810 41.434197 5.219679 2.343341 -1.531801 -0.019040 0.061300 -0.007670 -0.084550 
4.194220 18.074920 -0.462050 12.674077 -13.660768 -3.274578 -14.577932 13.418185 1.394470 19.290501 -0.634617 0.112577 9.890990 6.135363 42.089881 0.472670 7.586409 1.814327 0.187260 0.134780 0.204100 18.692807 -12.138217 3.451702 -16.785573 1.995126 -33.714416 4.255203 -9.692963 39.700209 -0.465534 -5.868502 1.978491 0.078990 -0.105070 0.106560 -4.782133 1.816143 -7.044973 14.161155 -10.143794 9.894256 -13.149745 -8.658948 10.997696 5.540933 11.596775 -13.380371 24.659718 -18.358120 21.220063 6.513920 -12.705940 -15.912290 -10.428621 -13.504385 11.621251 -55.873546 10.297036 -14.255706 -35.312807 -32.150129 5.072583 -3.389415 3.245750 0.308080 -0.119760 0.174430 -0.041440 -2.412886 6.113974 5.941707 58.813128 22.965922 0.249695 25.628287 44.335341 6.278637 2.322624 -1.576015 -0.019500 0.069680 -0.006240 -0.079480 
4.137000 17.969750 -0.403100 12.539414 -13.626824 -3.831425 -14.606227 13.404669 1.467877 20.828635 -0.602173 5.125114 7.012402 7.019774 35.699315 0.408715 7.125674 2.009808 0.193870 0.134720 0.211140 18.686622 -11.972123 3.407200 -16.002736 1.933521 -34.470475 2.954979 -10.118003 43.557920 -0.579991 -6.405850 1.794993 0.074620 -0.115790 0.115080 -4.742426 1.479577 -7.056592 14.267096 -11.450143 8.800821 -13.287973 -10.144769 11.902838 5.348639 11.827716 -13.771373 25.061723 -17.898785 21.873413 6.824110 -12.350580 -15.608840 -10.189166 -14.715648 12.200996 -55.480534 9.957097 -13.709464 -34.920624 -32.946525 5.293200 -3.372357 3.277746 0.313130 -0.124820 0.179820 -0.043560 -2.467757 6.549405 6.223006 59.417261 23.030693 0.365209 27.499547 46.932048 7.335840 2.319070 -1.622744 -0.011540 0.051030 -0.009680 -0.083490 
4.088150 17.887310 -0.341520 12.082071 -13.640920 -4.370652 -14.620000 13.346788 1.651594 21.788139 -0.828935 9.143559 4.650458 7.632422 30.714048 0.412101 6.943908 2.115417 0.208250 0.145940 0.235080 18.687288 -11.864899 3.280196 -14.517390 1.851449 -34.533857 1.117629 -10.009654 46.551962 -0.678915 -6.753298 1.689938 0.078350 -0.130720 0.115040 -4.737107 1.246953 -7.077452 14.960331 -12.623653 7.779916 -13.874234 -11.376245 12.762760 5.471400 11.980177 -14.019286 25.361638 -17.294564 23.170879 5.847900 -11.453250 -14.890070 -10.334383 -15.564082 12.574662 -55.253328 9.467984 -13.248014 -33.894354 -33.756104 5.385124 -3.354492 3.283728 0.320840 -0.127680 0.192440 -0.037720 -2.715909 6.802226 6.547506 60.780700 22.960315 0.424036 28.893870 48.602312 8.045590 2.314371 -1.666382 -0.010870 0.047280 -0.026870 -0.093140 
4.029610 17.830640 -0.302400 11.847034 -13.942630 -4.900935 -14.632499 13.371743 1.802131 21.554549 -0.938517 11.477630 3.698359 7.799015 28.371557 0.451097 6.882570 2.147235 0.214270 0.151210 0.255610 18.677859 -11.797275 3.174831 -12.941379 1.912509 -34.335534 -0.801334 -9.439072 48.429731 -0.742754 -6.878424 1.659940 0.063850 -0.166160 0.113020 -4.710013 0.964311 -7.098415 15.265591 -13.316359 7.383060 -13.732408 -12.147519 12.928479 5.302254 11.774626 -14.061232 24.657939 -16.290026 25.644763 5.268220 -10.362730 -14.831490 -10.106342 -15.933285 12.582113 -56.357682 8.497407 -12.943826 -32.598759 -32.621362 4.804676 -3.337601 3.262209 0.341410 -0.150340 0.218430 -0.046950 -2.624715 6.904723 6.611069 61.719574 22.363702 0.137923 31.496120 48.778261 9.037434 2.339814 -1.681027 0.001660 0.031130 -0.037910 -0.103720 
